<?xml version="1.0" encoding="UTF-8"?><svg id="Layer_3" xmlns="http://www.w3.org/2000/svg" width="6.358cm" height="7.739cm" viewBox="0 0 180.222 219.376"><defs><style>.cls-1{fill:#fff;}</style></defs><path class="cls-1" d="M88.989,109.67c-1.352-.759-5.124-1.571-8.968-2.077.092.39.145.793.145,1.209,0,1.632-.752,3.093-1.939,4.099.851.284,1.663.5,2.293.56,2.176.207,5.872-.842,8.029-1.117.338-.043,1.967-1.103,2.02-1.247.122-.331-1.223-1.226-1.582-1.427Z"/><path class="cls-1" d="M145.804,119.678c-2.373-.48-4.908-1.243-7.426-1.638.062.324.1.656.1.997,0,1.879-.993,3.537-2.506,4.527,2.101.469,4.257.654,6.959.39.611-.06,5.357-.796,5.377-1.083l-2.504-3.193Z"/><path class="cls-1" d="M153.632,32.757c-3.261-3.223-7.071-5.889-11.016-8.226-20.531-12.163-43.69-13.47-66.839-9.264-10.974,1.994-24.577,6.802-34.074,12.672-.696.43-3.109,2.267-3.615,2.361-.675.125.176-1.598.292-1.818,1.042-1.959,3.176-2.928,4.797-4.341,2.017-1.759,3.503-3.715,5.837-5.235,11.378-7.409,29.502-12.043,43.016-12.693,21.741-1.046,46.348,4.484,59.465,23.147l2.137,3.397Z"/></svg>