<?xml version="1.0" encoding="UTF-8"?><svg id="Layer_1_copy_4" xmlns="http://www.w3.org/2000/svg" width="6.358cm" height="7.739cm" viewBox="0 0 180.222 219.376"><path d="M179.621,79.836c-.245-1.413-.497-2.869-.482-3.852l.075-.535c.159-.658.413-1.672.285-2.953-.052-.52-.174-.986-.324-1.396.106-.44.176-.95.15-1.518-.045-1.008-.349-1.906-.616-2.697-.059-.173-.135-.399-.193-.588.122-.389.265-.932.299-1.597.025-.489-.015-.92-.074-1.285.178-.588.34-1.434.209-2.453-.146-1.123-.62-1.933-.959-2.426-.393-1.138-.729-2.27-1.054-3.368-1.052-3.546-2.139-7.214-5.067-11.076-1.695-2.236-3.522-3.487-4.99-4.492-1.004-.688-1.797-1.231-2.478-2.005-1.716-1.951-3.225-4.379-4.821-6.95-1.696-2.73-3.45-5.554-5.621-8.054-10.902-12.551-24.636-19.271-44.529-21.788C105.306.281,101.024.017,96.701.017,77.92.017,59.41,4.984,45.919,13.646c-2.46,1.579-4.028,3.165-5.545,4.698-.501.507-1.021,1.034-1.604,1.588-.423.402-.913.81-1.432,1.242-1.15.957-2.454,2.042-3.571,3.52-.757,1.001-1.396,2.047-2.015,3.058-.512.837-.996,1.627-1.495,2.31-.896,1.224-1.893,2.423-2.948,3.691-2.315,2.785-4.71,5.664-6.367,9.221-4.314,9.261-6.04,16.738-6.444,28.094-.021.582-.182,1.159-.501,1.647-.448.685-1.161,1.818-1.456,1.818-3.112,0-5.107,1.669-6.447,2.868C1.109,81.86.352,90.947.034,99.115l-.014.352c-.233,5.921,1.606,10.793,3.385,15.505.71,1.881,1.381,3.657,1.928,5.505.437,1.476.834,3.353,1.255,5.34.905,4.273,1.84,8.692,3.667,11.914,1.101,1.944,4.818,4.674,6.978,5.125.51.106,1.039.161,1.571.161.131,0,.262-.003.392-.01.908-.045,1.681.636,1.763,1.542.083.922.169,1.846.256,2.771.36,3.83.733,7.791.777,11.573,0,.007.06-1.374.06-1.367.01,1.445.471,2.566.873,3.955.476,1.644,1.374,3.36,2.159,4.858.352.672.704,1.343,1.057,2.015.173.33.339.886.605,1.153,2.399,5.122,5.026,10.146,7.865,15.038,2.844,4.901,5.874,10.037,9.804,14.163,3.905,4.099,8.849,7.335,13.855,9.913,5.659,2.915,11.444,3.906,17.04,4.865l1.737.3c2.244.393,4.933,1.053,7.779,1.751,5.971,1.467,12.739,3.129,18.66,3.129,2.911,0,5.528-.338,8.092-1.765,4.976-2.768,10.248-5.315,14.853-8.662,2.976-2.163,4.989-5.063,6.976-8.1,2.195-3.355,4.295-6.771,6.393-10.187,1.386-2.257,2.772-4.515,4.188-6.754,1.134-1.793,2.345-3.588,3.627-5.489,2.994-4.44,6.092-9.032,8.339-13.867.242-.522.558-1.34,1.093-2.741.395-1.03,1.098-2.871,1.612-4.068.189-.08.388-.175.588-.289,5.09-2.886,5.622-7.186,6.01-10.325.054-.431.108-.875.176-1.332.6-4.08,2.595-10.422,4.177-14.196.498-1.186,1.058-2.285,1.649-3.448,1.787-3.51,3.813-7.489,3.327-13.238-.036-.426-.121-.838-.221-1.219.161-.312.312-.635.43-.976.273-.785.433-1.517.574-2.162.12-.553.225-1.03.363-1.372.172-.426.344-.737.542-1.099.817-1.486,1.479-2.955,1.298-5.892-.037-.61-.158-1.159-.255-1.6-.015-.066-.029-.132-.044-.197.062-.279.186-.718.274-1.032.266-.939.541-1.911.575-2.914.018-.497-.028-.948-.099-1.337.191-.315.372-.686.509-1.117.34-1.064.33-2.048.324-2.766l.177-.62c.205-.337.437-.764.621-1.281,1.003-2.807.477-5.847-.032-8.786Z"/></svg>