<?xml version="1.0" encoding="UTF-8"?><svg id="Layer_12" xmlns="http://www.w3.org/2000/svg" width="6.818cm" height="7.789cm" viewBox="0 0 193.26 220.778"><defs><style>.cls-1{fill:#afac31;}</style></defs><path class="cls-1" d="M165.127,108.628c.004-.588.314-1.02.366-1.579.247-2.656-.574-7.079-1.181-9.716-.437-1.898-1.554-3.768-1.279-5.838.677.409.897,1.357,1.184,2.065.899,2.22,1.483,4.602,2.155,6.898.471.045.282.002.346-.264.878-3.645-.375-7.622-1.226-11.159,1.071.03,1.642,1.669,1.921,2.558.244.777.351,2.337.623,2.892.04.082.228.223.264.173.132-2.393-.713-4.68-.955-7.04l-4.663-7.463c.007-.28.326-.618.612-.617.994.004,3.269,4.574,3.867,5.453l-.175-2.109-4.837-7.114c-.046-.242.012-.336.263-.263,1.231.359,3.314,3.896,4.222,4.917l.411-1.459c-1.438-1.653-2.472-3.599-3.846-5.299-.899-1.112-1.951-2.035-2.811-3.17l.269-.436c2.596,1.629,4.174,4.284,5.977,6.673l-.306-1.979c-2.236-2.738-4.012-5.9-6.811-8.129l.287-.415c.642-.204,1.787.757,2.264,1.205,1.724,1.617,3.222,4.034,4.565,5.979l.06-2.33c-1.411-1.875-2.684-3.864-4.196-5.661-.778-.924-3.088-2.95-3.519-3.686-.164-.28-.211-.474-.166-.799.342-.387,3.308,2.662,3.604,2.984,1.276,1.387,2.462,2.951,3.427,4.57.339.005.169-.735.131-.923-.288-1.42-2.952-4.631-4.004-5.837-1.362-1.561-2.856-2.839-4.388-4.225l.266-.437c2.623,1.217,4.379,3.65,6.409,5.624-.533-1.668-1.441-3.905-2.544-5.274-.803-.997-2.772-2.63-3.952-3.078-.445-.169-.974.012-1.405-.352-.23-.194-.313-.614-.531-.875-2.235-2.672-4.413-5.513-6.759-8.003-2.372-2.517-4.924-4.833-7.741-6.845-.11.832.387,1.75-.351,2.456-.35-.34-.507-.819-.665-1.265-.156-.44-.346-1.985-.402-2.075-.04-.064-1.151-.845-1.221-.872-.382-.15-.225.181-.193.368.288,1.69.989,3.597.02,5.25-.604-.012-1.393-5.994-2.04-6.919-.095-.136-2.173-1.454-2.356-1.511-.243-.075-.314.019-.258.258,1.877,2.55,2.919,5.709,2.899,8.877-1.857-3.203-2.623-6.92-4.653-10.06l-3.346-1.624c4.031,4.498,6.611,9.74,5.576,15.942-.031.185-.046.698-.3.663-.888-5.051-1.981-9.998-5.025-14.22-1.41-1.955-3.003-3.946-5.344-4.759l1.786,3.045c1.835,4.381,2.967,8.957,2.781,13.74-.008.213.132.654-.174.612-1.503-5.133-2.186-11.24-4.957-15.869-.885-1.478-1.777-2.812-3.656-2.932,3.16,4.205,5.065,9.254,5.622,14.498.092.862-.035,1.765.186,2.626l-.182,1.501c-1.139-5.019-2.3-10.309-4.717-14.879-.491-.928-1.756-3.24-2.411-3.916-.634-.654-2.687-.821-3.594-.8,2.529,3.725,4.83,7.791,6.153,12.124.269.882.657,2.012.613,2.902-2.001-3.135-3.498-6.557-5.331-9.783-.819-1.443-2.142-3.916-3.118-5.142-.754-.946-1.461-.234-2.359-.891l2.533,3.704c3.375,6.455,8.21,14.097,9.372,21.384.03.187.187.61-.13.568-3.685-7.533-6.863-15.368-11.352-22.479-.324-.513-1.892-3.1-2.185-3.263-.602-.337-2.609-.306-3.336-.179,3.09,3.032,5.634,6.75,7.762,10.515,1.415,2.503,3.097,5.841,3.888,8.59.051.179.26.557.037.666-3.322-5.298-6.055-10.992-9.86-15.973-.521-.682-2.883-3.734-3.411-3.97-.238-.106-1.773-.244-2.188-.273-.187-.013-.83-.12-.796.18,2.322,1.427,4.29,3.84,5.695,6.168.217.36.747.987.543,1.39-2.486-2.289-4.972-5.305-7.836-7.102-.478-.3-1.184-.782-1.701-.935-1.147-.339-2.881-.258-4.083-.311,6.779,4.134,13.416,9.095,17.572,15.994.037.119-.167.127-.26.085-.32-.144-1.431-1.48-1.845-1.846-4.247-3.757-8.886-8.066-13.583-11.196-2.56-1.706-5.755-3.565-8.914-3.298,1.453,1.048,2.992,1.97,4.449,3.018,6.295,4.529,17.422,15.073,19.981,22.372.059.169.327.502.086.617-3.712-3.439-5.964-8.566-9.576-12.04-2.946-2.833-6.601-5.94-9.862-8.415-.903-.685-7.497-5.378-7.978-5.378h-3.163c-.033,0-.313.283-.263.349,6.636,2.829,12.104,7.423,17.4,12.214,3.143,2.843,6.828,6.027,8.256,10.107-2.533-2.05-4.658-4.541-7.025-6.768-6.642-6.25-13.181-11.51-21.574-15.34-1.249.078-2.59.27-3.82.498-.286.053-.306-.12-.267.343,1.533.429,3.07,1.064,4.513,1.728,6.221,2.863,17.316,10.519,21.763,15.67.214.248,1.81,2.306,1.666,2.462-5.377-3.978-10.317-9.02-16.004-12.552-4.723-2.932-9.988-4.85-15.052-7.092l-2.048-.018-3.799,1.031c7.856,1.176,15.469,4.101,21.966,8.612-5.613-1.739-10.795-4.548-16.482-6.099-2.429-.663-4.944-.991-7.337-1.796l-1.663.865c6.403.417,12.376,3.101,17.978,6.011l4.339,3.127-12.257-5.051c-4.078-1.801-8.49-2.19-12.784-3.185-4.223,1.648-8.521,3.244-12.685,5.044-6.441,2.783-15.533,8.315-19.989,13.753-.709.866-1.264,2.038-2.035,2.886-.028.13.184.12.26.086.404-.181,2.174-2.228,2.724-2.725,1.59-1.437,3.555-3.352,5.801-3.338-1.181,1.174-2.63,2.062-3.868,3.162-.924.82-1.717,1.808-2.631,2.641-1.129,1.03-3.54,2.661-4.315,3.769-.414.591-.346,1.097-.627,1.658-.367.733-1.12,1.543-1.124,2.391,1.259-1.272,3.2-2.102,4.484-3.248,2.297-2.052,3.623-5.27,6.342-7.19.194-.137.629-.6.86-.37-2.058,2.13-3.28,5.091-5.181,7.296-2.299,2.666-6.115,3.931-8.004,7.11-.307.517-.398,1.424-.52,2.026.625-.47.915-1.273,1.408-1.841,1.937-2.235,4.998-3.749,7.121-5.884,1.549-1.558,2.711-3.755,4.382-5.284.232-.212,1.601-1.328,1.764-1.4.217-.095.324.036.259.259-.133.452-.828.938-1.125,1.336-1.894,2.541-3.152,4.898-5.548,7.105-1.837,1.693-4.178,2.896-5.797,4.748-1.629,1.863-3.256,4.723-3.87,7.112,1.051-.907,1.82-2.293,2.803-3.258,1.159-1.138,2.721-2.034,3.956-3.073,2.588-2.177,4.606-4.147,6.766-6.766.536-.651,1.939-2.935,2.367-3.257.215-.161.355-.204.625-.164.228.226-1.664,3.312-1.962,3.748-4.01,5.863-10.128,8.577-13.747,14.02-1.458,2.193-1.61,3.7-1.863,6.306l1.02-2.228c4.065-5.592,9.554-9.735,14.182-14.991.434-.493.667-1.211,1.314-1.408l-.036.577c-1.453,1.583-2.359,3.596-3.739,5.224-4.629,5.464-9.484,7.567-11.945,14.944-.179.535-1.326,4.072-1.326,4.298,0,.935-.181,3.332,0,4.042.015.059.239.269.35.264.677-7.572,5.491-14.216,10.636-19.506.362-.07.3.145.227.403-.519,1.856-3.098,4.377-4.257,6.112-3.346,5.011-5.305,10.595-6.431,16.504-.24-.101-.294-.901-.328-1.163-.056-.432-.013-.866-.022-1.297-1.254-.311-1.836,1.42-2.9,1.417-.573-.002-1.67-.772-2.364-.985-.991-.304-2.629-.628-3.594-.239-3.685,1.487-4.647,9.24-4.857,12.717-.081,1.333.088,2.712.005,4.047-.087,1.41-.753,3.747-.631,5.013.134,1.39,1.16,3.975,1.639,5.406,2.181,6.519,4.184,12.058,5.762,18.842.665,2.861.528,5.278,2.627,7.565.385.419,2.407,2.143,2.858,2.244.855.192,2.853-.945,3.475-1.549.848-.824,1.97-3.872,2.936-4.101.247-.059.433.031.667.06.187-2.908-.656-5.706-1.032-8.544-.217-1.633-.14-3.362-.42-5.028-.485-2.884-1.43-8.551-2.801-10.906-.201-.345-1.33-2.047-1.545-2.154-1.056-.526-1.524.955-2.2,1.147-.41.123-.292-.532-.248-.776.304-1.698,2.363-2.104,3.666-1.23,3.954,2.651,3.765,10.877,4.252,15.079.334,2.882,1.2,5.63,1.557,8.46,1.054,8.345-.166,17.287.346,25.663.234,3.831,1.645,7.258,3.195,10.688,3.572,7.901,7.789,15.488,12.108,23.001,1.358,2.363,3.004,4.547,4.905,6.5l3.356,3.59c.928.953,2.007,1.752,3.203,2.333,1.845.896,5.412,3.336,7.39,4.261,5.774,2.699,11.471,3.244,17.558,4.585,10.177,2.242,17.255,5.116,28.12,3.422,2.847-.444,10.746-4.356,12.747-6.469,5.148-5.436,8.042-11.656,11.475-18.162.3-.569.409-.804.572-1.052.109.136-.465,1.638-.318,1.733-.873,1.803-1.075,2.226-1.149,2.412-2.643,6.662-5.401,12.088-10.471,17.05l.772-.24,1.928-1.03c.679-.363,1.304-.819,1.857-1.356l1.957-1.901,1.509-1.882c.489-.622.831-1.198,1.126-1.764.009-.014.018-.028.027-.042-.007.011-.014.02-.021.031.302-.581.553-1.151.856-1.749,1.881-3.711,3.483-8.436,5.365-12.016,4.99-9.493,11.858-17.523,16.097-27.473,3.037-7.127,5.146-14.721,6.757-22.295.684-3.216.93-6.464,1.818-9.622.904-3.213,3.654-10.816,4.669-12.551.154.249-1.526,5.182-1.755,5.902-.286.927-.961,3.293-1.18,4.161-.595,2.366-.285,1.43-.87,3.776-.749,3.005-.717,4.863-1.355,7.861-1.117,5.243-1.952,10.592-3.423,15.74-.281.976,1.629-.053,1.887-.289,1.286-1.177,1.966-5.633,2.44-7.5.833-3.281.707-6.693,1.776-9.92,1.649-4.977,4.281-10.422,5.541-15.372.59-2.319-.012-3.66-1.448-5.494l.7-.266-.017-.243c-.145-.234-.251-.464-.327-.73-.292-1.012-1.745-6.779-1.57-7.346.05-.161.228-.333.416-.29.178.17.381.331.522.534.531.764,1.717,5.844,1.838,6.958.047.43-.045.72-.081,1.12l.623.174c-.099-.392.163-.834.158-1.163-.02-1.42-.791-5.013-1.092-6.603-.475-2.51-1.344-4.969-1.525-7.524.423-.064.53.349.68.636.375.717.622,1.856.851,2.664.797,2.817,1.33,5.737,1.633,8.648l.621-1.396c.27-5.596-2.022-10.815-3.159-16.194.017-.449.358-.457.707-.174.333.269,2.324,7.192,2.555,8.165l1.03,5.381c.072-.6.528-1.247.532-1.842.004-.743-.549-1.799-.543-2.639ZM15.852,132.614c.298,2.533-3.598,2.004-5,.958-2.073-1.546-2.035-4.868-2.869-6.973-.787-1.987-2.72-3.532-3.647-5.316-.885-1.703-1.445-3.975-1.578-5.888l2.981,5.364c.915,1.65,2.653,2.923,3.553,4.531,1.458,2.606.853,6.966,4.885,7.608l1.675-.285ZM13.507,107.43c-.658,1.46-2.148,2.407-2.703,3.975-.818,2.31-.447,5.144.705,7.276.565,1.047,1.616,1.695,2.288,2.633.771,1.077,1.007,2.406,1.613,3.57-.162.134-1.353-.605-1.586-.785-1.189-.918-3.744-4.18-4.261-5.58-1.095-2.969-1.04-5.34.041-8.314.494-1.36,1.123-1.572,1.799-2.595,2.516-3.809,1.25-8.703-1.876-11.725-2.761-2.669-4.947.132-5.494,2.949-.363,1.87.096,2.834.138,4.517.063,2.554-.705,5.44-.888,8.003-.229.048-.281-.326-.305-.481-.319-2.076-.138-4.997-.213-7.17-.064-1.829-.417-3.109-.102-5.008.476-2.866,1.955-6.077,5.413-5.574,3.103.451,5.726,5.777,5.936,8.649.103,1.41.056,4.418-.504,5.662ZM20.341,79.995c.771-2.497,5.248-9.548,7.287-11.166.159-.126.828-.663.961-.531l-8.784,14.41c.097-.888.273-1.861.536-2.713ZM16.156,92.243c-.185-1.075.99-6.038,1.714-6.812.164-.176.245-.324.527-.263.32.365-1.354,7.026-1.844,7.907-.236-.204-.346-.536-.397-.832ZM27.966,92.013c-.405,2.309-.232,4.541-.166,6.862-2.314-2.323-1.267-8.13.177-10.717.237-.425.36-.793.964-.704.073,1.577-.706,3.031-.975,4.559ZM29.173,81.621c-.496,1.879-1.996,4.39-2.695,6.443-1.059,3.109-1.923,6.543-1.761,9.852.071,1.445.507,2.867.623,4.297-1.764-1.514-1.968-4.401-1.854-6.597.201-3.859,2.703-11.708,5.134-14.725.186-.231.304-.535.672-.468.044.414-.013.797-.119,1.197ZM25.863,82.88c-3.055,6.021-6.352,13.798-2.926,20.331.629,1.199,1.558,2.355,2.313,3.486-.938.009-2.015-1.003-2.631-1.762-5.506-6.782.084-19.497,4.14-25.904.244-.385,1.998-3.326,2.534-2.825.286.268-3.078,5.98-3.43,6.673ZM28.972,72.984c-4.824,9.046-12.356,16.466-9.172,27.915l2.376,5.884c-4.393-4.119-5.104-9.807-3.9-15.497,1.142-5.396,6.428-14.717,9.889-19.108.246-.312,1.06-1.479,1.478-1.069.236.232-.513,1.576-.672,1.875ZM142.203,114.765c1.41-.656,4.8,4.225,3.408,4.864-.702.323-1.752-1.834-2.11-2.328-.323-.446-2.198-2.118-1.298-2.536ZM137.059,114.866c.3-.119.834.238,1.102.398.906.539,3.654,2.477,3.989,3.378.426,1.147-.278,1.003-1.021.499-.785-.532-2.755-2.177-3.449-2.853-.257-.251-1.305-1.151-.621-1.422ZM132.432,114.744c1.942.841,6.002,3.2,6.821,5.191.449,1.092.247,1.883-.919,1.084-.61-.418-1.526-1.713-2.212-2.318-1.281-1.128-3.049-2.015-3.907-3.487l.217-.47ZM128.236,34.731c1.281.986,1.813,2.888,2.163,4.425.484,2.127.673,4.312.471,6.469-.529.086-.282-.129-.355-.426-.458-1.858-.54-3.839-.96-5.726-.358-1.606-.994-3.13-1.318-4.743ZM128.087,116.007c.194-.36.879-.112,1.168-.013,1.315.449,5.409,3.082,5.721,4.405.045.193.061.34-.069.506-.102.151-.227.273-.417.302-.453.069-2.54-1.842-3.119-2.264-.596-.434-3.736-2.096-3.285-2.935ZM125.786,116.608c.55.148,3.686,2.08,3.226,2.635-.381.459-2.979-1.498-3.342-1.873-.296-.305-.572-.947.116-.762ZM124.597,119.36c.196.051,2.922.873,2.477,1.367-.269.299-5.559-1.111-6.354-1.237l-.251-.587c.207-.263,3.572.314,4.127.457ZM119.838,121.435c1.793.016,3.716-.328,5.405.234.093.34.068.281-.165.417-.689.402-3.955.406-4.936.376-.975-.029-3.343.119-3.267-1.159.989-.048,1.976.123,2.964.132ZM118.689,133.033c.859.308,2.92,2.138,4.119,2.748.849.432,1.833.859,2.752,1.114,3.01.837,6.253.119,9.352.579-.219.422-.935.522-1.368.651-3.875,1.159-7.936.62-11.465-1.264-1.024-.547-3.296-2.026-3.871-2.982-.353-.587-.192-1.086.48-.845ZM109.749,43.99c-3.469-4.883-7.919-8.713-12.093-12.948.625.124,1.225.621,1.738.984,3.185,2.251,6.815,5.78,9.329,8.772,2.739,3.26,5.006,6.902,6.329,10.979-2.107-2.337-3.484-5.228-5.303-7.788ZM112.366,125.901c.231-.067.525-.08.677.138.618.886-1.685,2.515-1.857,3.44-.002.62,2.317,1.719,1.307,2.529-1.19-.113-2.732-1.248-2.717-2.535.009-.78,1.921-3.377,2.59-3.571ZM101.867,116.471c.717-.41,1.254-1.335,2.052-1.016.678.962-3.057,2.926-3.743,3.191-.591.228-3.587,1.14-3.808.401-.251-.837,1.516-.905,2.065-1.09,1.184-.4,2.349-.865,3.435-1.486ZM97.479,114.045c-.086,1.512-3.052,3.683-4.388,3.793-.196.016-.473.081-.531-.194-.096-.46,2.488-1.953,2.972-2.297.295-.211,1.668-1.583,1.947-1.302ZM94.547,127.955c-1.064.307-.706-1.352-.908-2.196-.191-.797-1.14-1.592-.446-2.162,1.645-.142,2.793,3.942,1.354,4.358ZM92.242,110.123c.445-.736.82-.192.859.49.082,1.431-.507,3.026-1.071,4.309-.239-.03-.305-.239-.341-.446-.081-.465.357-4.027.553-4.352ZM87.802,108.521c.869.735,2.956,5.1,2.625,6.11-.136.429-.738.308-.985.069-.7-.68-1.737-4.695-2.656-5.707-.004-.678.472-.932,1.017-.471ZM82.651,106.149c.542-.171.9.353,1.194.705.848,1.017,2.542,4.207,2.175,5.483-.56,1.946-1.788-2.293-1.917-2.578-.29-.637-1.741-2.748-1.737-3.194.002-.194.1-.358.285-.417ZM78.591,104.555c.726-.156,2.558,3.49,2.872,4.154.305.645,1.265,2.581,1.264,3.144,0,.291-.021.43-.272.606-.751-.015-3.361-6.436-4.099-7.329l.235-.575ZM72.576,102.125c.838.535,3.648,2.513,4.147,3.185.332.447.442,1.246-.009,1.619-.249.205-.736.194-1.015.036-.206-.117-1.484-2.038-1.88-2.484-1.149-1.291-2.655-2.277-3.711-3.623.901.267,1.686.769,2.467,1.267ZM68.312,102.415c1.608.842,3.403,2.414,4.545,3.824.387.478.635.96-.263.875-.472-.045-3.413-2.421-4.103-2.915-.932-.667-1.905-1.337-2.932-1.853.09-1.518,1.951-.352,2.754.068ZM61.814,101.81c.655-.003,3.748,2.974,4.511,3.527l.266.826c-.808.622-5.064-2.62-5.349-3.574-.135-.452.089-.776.572-.779ZM58.718,102.952c.209-.018.398.179.553.303.317.255,2.337,2.185,2.518,2.434.244.335.602,1.083.132,1.356-.672.391-3.854-2.319-3.756-3.379.027-.287.254-.689.553-.714ZM55.747,104.605c1.073-.188,3.033,2.357,1.48,2.419-.656.026-2.089-1.21-2.008-1.881.042-.256.283-.494.529-.537ZM50.784,117.75c-.897.518-3.91-.382-4.915-.809-.244-.104-1.732-.73-1.461-1.085l.743-.138,5.933,1.545c.061.305-.073.355-.3.486ZM51.435,114.887c-.282.915-3.713-.586-4.131-1.14-.165-.118.097-.3.201-.329.637-.176,2.778.444,3.404.767.285.147.66.264.526.702ZM54.911,117.803c-.146.01-.682.164-.667-.121.033-.599,3.214-.876,3.861-1.02,5.322-1.179,9.663-2.096,15.321-1.655,1.501.117,3.439-.513,4.835-.043,1.506.507,8.794,4.412,9.518,5.359.274.358.387.965.647,1.211.22.208.594.204.744.329.7.584.171,3.482-1.603,3.176-.903-1.159.952-1.99-.285-3.141-1.016-.945-1.142-.254-1.963-.021-.801.227-2.868.609-3.802.781-11.107,2.047-8.829.914-18.372-4.492-.322-.183-1.22-.922-1.46-.963-.341-.058-.897.359-1.374.412-1.541.172-3.656.063-5.4.188ZM85.714,127.894c0,.501-.96.774-1.376.916-3.189,1.086-12.325,1.94-15.504,1.194-2.204-.517-3.837-2.067-5.796-3.079-.047-.289.236-.162.434-.173,2.549-.145,3.547.877,5.717,1.492,3.465.98,10.28.308,13.914-.318.582-.1,2.614-.912,2.612-.031ZM60.163,128.882c.306-.097.611-.007.894.112,1.383.58,3.306,2.461,4.671,3.236,4.692,2.668,9.109,1.744,14.04.446,1.246-.328,2.938-1.186,4.106-1.34.473-.062,1.432-.189,1.487.427-.005.34-.764.737-1.062.875-3.088,1.428-10.103,3.01-13.441,2.722-3.357-.29-7.66-2.744-10.11-5.004-.29-.268-1.417-1.211-.585-1.474ZM103.915,202.205c-.897-.075-2.098-.797-3.175-.879-2.488-.19-5.848.16-8.437.175-.944.006-1.857.043-2.79.163l-.295-.419c.002-.783,2.301-.562,2.86-.656,1.063-.18,1.92-.67,3.257-.785,2.319-.199,6.831-.053,8.805,1.282.726.491.823,1.208-.226,1.119ZM106.857,194.277c-1.236.55-3.087,1.556-4.231,1.92-2.942.935-11.135.145-13.881-1.332-.256-.137-1.441-.926-1.105-1.265,1.544.168,3.091,1.186,4.666,1.235,1.187.037,2.818-.362,4.029-.371,2.929-.021,4.537.457,7.654-.243,1.015-.228,2.894-1.095,3.788-1.142,1.505-.078-.43.98-.92,1.198ZM119.974,180.946c-.535-.044-.996.159-1.462.383-1.998.962-4.011,3.222-6.221,4.148-2.364.989-5.118,1.146-7.579,1.735-2.791.669-4.297,3.448-7.319,2.771-1.913-.429-4.48-2.81-6.373-3.192-2.778-.559-4.726-2.594-7.466-3.413-3.243-.969-7.285-3.023-10.285-4.653-.98-.533-2.455-2.24-3.434-.988-.27.345-1.605,4.495-2.415,3.132-.682-1.147,1.712-4.884,2.794-5.04,1.598-.231,2,.661,3.117,1.254,3.191,1.695,7.484,3.93,10.927,4.89,2.48.691,4.228,2.8,6.761,3.241,2.037.354,4.55,2.723,6.555,3.186,2.723.628,4.471-2.149,7.108-2.801,3.35-.828,5.458-.773,8.602-2.645,1.536-.915,4.009-3.134,5.461-3.677,1.191-.446,2.68-.383,2.947,1.097.412,2.282-2.109,3.305-1.716.574ZM123.491,178.485c-.067-.557.115-1.283-.038-1.807-.227-.78-2.28-2.828-2.96-3.366-1.485-1.175-3.616-1.826-4.211-3.963-.967.438-1.819,1.094-2.813,1.49-1.462.583-3.238.815-4.687,1.464-1.35.605-2.764,1.725-4.093,2.409-2.901,1.494-4.677,2.399-7.907,1.047-1.119-.468-1.591-1.379-2.462-2.107-3.175-2.651-7.154-3.31-10.283-5.71-1.648-1.264-4.606-3.711-5.392-5.504-.164-.375-.559-2.011-.763-2.053-.724.448-1.522.787-2.195,1.317-1.414,1.114-2.363,2.859-3.879,4.029-2.658,2.051-5.048,2.813-7.457,5.548-1.592,1.807-1.77,2.595-2.705,4.677-.386.86-.689-.888-.718-1.249-.196-2.429,2.919-5.613,4.757-7.014,1.596-1.216,3.541-2.053,5.084-3.351,3.875-3.261,6.249-7.773,11.532-9.733,2.433-.903,6.176-.054,6.923,2.694l-.253.463c-1.089.59-1.446-.711-2.153-1.218-1.224-.878-2.627-1.113-4.046-.589-.305.112-1.791.955-1.935,1.14-.712.915-.569,3.601-.14,4.69.423,1.072,3.169,4.248,4.124,5.015,2.583,2.074,5.968,2.745,8.777,4.579,1.91,1.247,3.209,3.165,5.549,3.412,2.887.305,6.156-2.698,8.634-3.845,2.502-1.158,5.947-1.361,7.981-3.442.483-.495,1.38-2.798,1.382-3.503.002-.84-.504-3.081-.96-3.786-.195-.302-.75-.299-.734-.954.023-.978,2.239-.767,2.845-.103,1.01,1.108.478,2.371.466,3.575-.004.397.188.873.167,1.429-.088,2.349-1.292,2.699.271,5.163,1.674,2.638,4.958,3.815,5.171,7.315.039.634-.055,1.773-.881,1.839ZM134.079,142.526c-3.546,1.585-9.894.926-12.877-1.625-.489-.418-3.383-3.543-3.475-3.906-.062-.246-.044-.503-.037-.752.325-.046.52,0,.799.166,1.42.84,2.694,2.867,4.24,3.844,2.244,1.419,5.613,1.845,8.235,1.619.734-.063,4.184-1.305,4.263-.273-.167.589-.656.707-1.149.927ZM144.434,134.409c-.475-.311-.69-1.107-1.258-1.155-1.868.34-3.928.829-5.818,1.012-5.349.518-9.402-.597-14.133-2.547-.619-.255-2.456-1.134-1.85-1.852l-.076-1.533c-.448.153-.882.554-1.362.633-1.121.185-1.549-.711-.632-1.271,1.162-.709,4.185-1.434,5.648-1.742,1.133-.239,1.907.033,2.602-.893,1.898.339,3.833.547,5.73.893,2.049.374,4.922.897,6.857,1.467.469.138,1.137.382,1.449.699,1.335,1.36,2.547,4.207,4.059,5.422.637.512,2.083.448,2.71,1.111-.721.97-3.097.301-3.925-.242ZM149.716,119.428l-.466.195c-.934-.66-2.054-1.837-1.796-3.053.288-.285,1.721,1.195,1.919,1.475.322.458.679.78.343,1.383Z"/><path class="cls-1" d="M32.195,39.303c.506-.094,2.92-1.931,3.615-2.361,9.498-5.871,23.1-10.679,34.074-12.672,23.15-4.206,46.309-2.898,66.839,9.264,3.945,2.337,7.755,5.003,11.016,8.226l-2.137-3.397c-13.117-18.663-37.724-24.193-59.465-23.147-13.515.65-31.639,5.285-43.016,12.693-2.334,1.52-3.819,3.476-5.837,5.235-1.621,1.413-3.755,2.382-4.797,4.341-.117.22-.967,1.943-.292,1.818Z"/></svg>