<?xml version="1.0" encoding="UTF-8"?><svg xmlns="http://www.w3.org/2000/svg" width="6.358cm" height="7.739cm" viewBox="0 0 180.222 219.376"><g id="Layer_1_copy_2"><path d="M86.742,148.1c-.712.915-.569,3.6-.14,4.69.423,1.072,3.169,4.248,4.124,5.015,2.583,2.074,5.968,2.745,8.777,4.579,1.91,1.247,3.209,3.165,5.55,3.412,2.887.305,6.156-2.698,8.634-3.845,2.502-1.158,5.947-1.361,7.981-3.442.483-.495,1.38-2.798,1.382-3.502.002-.84-.504-3.081-.96-3.786-.195-.302-.75-.299-.734-.954.023-.978,2.239-.767,2.845-.103,1.01,1.108.478,2.371.466,3.575-.004.397.188.873.167,1.429-.088,2.349-1.292,2.699.271,5.163,1.674,2.638,4.958,3.815,5.171,7.315.039.634-.055,1.773-.881,1.839-.067-.558.115-1.283-.038-1.808-.227-.78-2.28-2.828-2.96-3.366-1.485-1.175-3.616-1.826-4.211-3.963-.967.438-1.819,1.093-2.813,1.49-1.462.583-3.238.815-4.687,1.464-1.35.605-2.764,1.725-4.093,2.409-2.901,1.494-4.677,2.399-7.907,1.047-1.119-.468-1.591-1.379-2.462-2.107-3.175-2.651-7.154-3.31-10.283-5.71-1.648-1.264-4.606-3.711-5.392-5.504-.164-.375-.559-2.011-.763-2.053-.724.448-1.522.787-2.195,1.317-1.414,1.114-2.363,2.859-3.879,4.029-2.658,2.051-5.048,2.813-7.457,5.548-1.592,1.807-1.77,2.595-2.705,4.677-.386.86-.689-.888-.718-1.249-.196-2.429,2.919-5.613,4.757-7.014,1.596-1.216,3.541-2.053,5.084-3.351,3.875-3.261,6.249-7.773,11.532-9.733,2.433-.903,6.176-.054,6.923,2.694l-.253.463c-1.089.59-1.446-.711-2.153-1.218-1.224-.878-2.627-1.113-4.046-.589-.304.112-1.791.955-1.935,1.14Z"/><path d="M95.073,112.864c.7.584.171,3.482-1.603,3.176-.903-1.159.952-1.99-.285-3.141-1.015-.945-1.142-.254-1.963-.021-.801.227-2.868.609-3.802.781-11.107,2.047-8.829.914-18.372-4.492-.322-.183-1.22-.922-1.46-.963-.341-.058-.897.359-1.374.412-1.541.172-3.656.063-5.4.188-.146.01-.682.164-.667-.121.033-.599,3.213-.876,3.861-1.02,5.322-1.179,9.663-2.096,15.321-1.655,1.501.117,3.439-.513,4.835-.043,1.506.507,8.794,4.412,9.518,5.359.274.358.387.965.647,1.211.22.208.594.204.744.329Z"/><path d="M125.878,171.947c-.535-.044-.996.159-1.462.383-1.998.962-4.011,3.222-6.221,4.147-2.364.989-5.118,1.146-7.579,1.735-2.791.669-4.297,3.448-7.319,2.771-1.913-.429-4.48-2.81-6.373-3.192-2.778-.559-4.726-2.594-7.466-3.413-3.243-.969-7.285-3.023-10.285-4.653-.98-.533-2.455-2.24-3.434-.988-.27.345-1.605,4.495-2.415,3.132-.682-1.147,1.712-4.884,2.794-5.04,1.598-.231,2,.661,3.117,1.254,3.191,1.695,7.484,3.93,10.927,4.89,2.48.691,4.228,2.8,6.761,3.241,2.037.354,4.55,2.723,6.555,3.186,2.723.628,4.471-2.149,7.108-2.801,3.35-.828,5.458-.773,8.602-2.645,1.536-.915,4.009-3.134,5.461-3.677,1.191-.446,2.68-.383,2.947,1.097.412,2.282-2.109,3.305-1.716.574Z"/><path d="M127.202,119.334c-.448.153-.882.554-1.362.633-1.121.185-1.549-.711-.632-1.271,1.162-.709,4.185-1.434,5.648-1.742,1.133-.239,1.907.033,2.602-.893,1.898.339,3.833.547,5.73.893,2.049.374,4.922.897,6.857,1.467.469.138,1.137.382,1.449.699,1.335,1.36,2.547,4.207,4.059,5.422.637.512,2.083.448,2.71,1.111-.721.97-3.097.301-3.925-.242-.475-.311-.69-1.107-1.258-1.155-1.868.34-3.928.829-5.819,1.012-5.349.518-9.402-.597-14.133-2.547-.619-.255-2.456-1.134-1.85-1.852"/><path d="M21.313,115.885c-.162.134-1.353-.605-1.586-.785-1.189-.918-3.744-4.18-4.261-5.58-1.095-2.969-1.04-5.34.041-8.314.494-1.36,1.123-1.572,1.799-2.595,2.515-3.809,1.25-8.703-1.876-11.725-2.761-2.669-4.947.132-5.494,2.949-.363,1.87.096,2.834.138,4.517.063,2.554-.705,5.44-.888,8.003-.229.048-.281-.326-.305-.481-.319-2.076-.138-4.997-.213-7.17-.064-1.829-.417-3.109-.102-5.008.475-2.866,1.955-6.077,5.413-5.574,3.103.451,5.726,5.777,5.936,8.649.103,1.41.056,4.418-.504,5.662-.658,1.46-2.148,2.407-2.703,3.975-.818,2.31-.447,5.144.705,7.276.565,1.046,1.616,1.695,2.288,2.633.771,1.077,1.007,2.406,1.613,3.57Z"/><path d="M35.547,62.111c.236.232-.513,1.576-.672,1.875-4.824,9.046-12.356,16.466-9.171,27.915l2.376,5.884c-4.393-4.119-5.104-9.807-3.9-15.497,1.142-5.396,6.428-14.717,9.889-19.108.246-.312,1.06-1.479,1.478-1.069Z"/><path d="M66.067,119.883c.306-.097.611-.007.894.112,1.383.58,3.306,2.461,4.671,3.236,4.692,2.668,9.11,1.744,14.04.446,1.246-.328,2.938-1.186,4.106-1.34.473-.062,1.432-.189,1.487.427-.005.34-.764.737-1.062.875-3.088,1.428-10.103,3.01-13.441,2.722-3.357-.29-7.66-2.744-10.11-5.004-.29-.268-1.417-1.211-.585-1.474Z"/><path d="M8.662,106.397l2.981,5.364c.915,1.65,2.653,2.923,3.553,4.531,1.458,2.606.853,6.967,4.885,7.608l1.675-.285c.298,2.533-3.598,2.004-5,.958-2.073-1.546-2.035-4.868-2.869-6.973-.787-1.987-2.72-3.532-3.647-5.316-.885-1.703-1.445-3.975-1.578-5.888Z"/><path d="M35.196,67.208c.286.268-3.078,5.98-3.43,6.673-3.055,6.021-6.352,13.798-2.926,20.331.629,1.199,1.558,2.355,2.313,3.486-.938.009-2.015-1.003-2.631-1.762-5.506-6.782.084-19.497,4.14-25.904.244-.385,1.998-3.326,2.534-2.824Z"/><path d="M68.94,117.926c-.048-.289.236-.162.434-.173,2.549-.145,3.547.877,5.717,1.491,3.465.98,10.28.308,13.914-.318.582-.1,2.614-.912,2.612-.031,0,.501-.96.774-1.376.916-3.189,1.086-12.325,1.94-15.504,1.194-2.204-.517-3.837-2.067-5.796-3.079Z"/><path d="M93.543,184.602c1.544.168,3.091,1.186,4.666,1.235,1.187.037,2.818-.362,4.029-.371,2.929-.021,4.537.457,7.654-.243,1.015-.228,2.894-1.095,3.788-1.142,1.505-.078-.43.98-.92,1.198-1.236.55-3.087,1.556-4.231,1.92-2.942.935-11.135.145-13.881-1.332-.256-.137-1.441-.926-1.105-1.265Z"/><path d="M123.595,127.244c.325-.046.52,0,.799.166,1.42.84,2.694,2.867,4.24,3.844,2.244,1.419,5.613,1.845,8.235,1.619.734-.063,4.184-1.305,4.263-.273-.167.589-.656.707-1.149.927-3.546,1.585-9.894.926-12.877-1.625-.489-.418-3.383-3.543-3.475-3.906-.062-.246-.044-.503-.037-.752Z"/><path d="M35.196,71.425c.044.414-.013.797-.119,1.197-.496,1.879-1.996,4.39-2.695,6.443-1.059,3.109-1.923,6.543-1.761,9.852.071,1.445.507,2.867.623,4.297-1.764-1.514-1.968-4.401-1.854-6.597.201-3.859,2.703-11.708,5.134-14.725.186-.231.304-.535.672-.468Z"/><path d="M120.956,42.779c-2.107-2.337-3.485-5.228-5.303-7.788-3.469-4.883-7.919-8.713-12.093-12.948.625.124,1.225.621,1.738.984,3.185,2.251,6.815,5.78,9.329,8.772,2.739,3.26,5.006,6.902,6.329,10.979Z"/><path d="M140.816,128.475c-.219.422-.935.522-1.368.651-3.875,1.159-7.936.62-11.465-1.264-1.024-.547-3.296-2.027-3.871-2.982-.353-.587-.192-1.086.48-.845.859.308,2.92,2.138,4.119,2.748.849.432,1.833.859,2.752,1.114,3.01.837,6.253.119,9.352.579Z"/><path d="M101.24,190.804c2.319-.199,6.831-.053,8.805,1.282.726.491.822,1.207-.226,1.119-.897-.075-2.098-.797-3.175-.879-2.488-.19-5.848.16-8.437.175-.944.006-1.857.043-2.79.163l-.295-.419c.002-.783,2.301-.562,2.86-.656,1.063-.18,1.92-.67,3.257-.785Z"/><path d="M34.493,59.299l-8.784,14.41c.097-.888.273-1.861.536-2.713.771-2.497,5.248-9.548,7.287-11.166.159-.126.828-.663.961-.531Z"/><path d="M144.237,112.02c-.61-.418-1.526-1.713-2.212-2.318-1.281-1.128-3.049-2.015-3.907-3.487l.217-.47c1.942.841,6.002,3.2,6.821,5.191.449,1.092.247,1.883-.919,1.084Z"/><path d="M34.844,78.455c.074,1.577-.706,3.031-.975,4.559-.405,2.309-.232,4.541-.166,6.862-2.314-2.323-1.267-8.13.177-10.717.237-.425.36-.793.964-.704Z"/><path d="M133.99,107.009c.194-.36.879-.112,1.168-.013,1.315.449,5.409,3.082,5.721,4.405.045.193.061.34-.069.506-.102.151-.227.273-.417.302-.453.069-2.54-1.842-3.119-2.264-.596-.434-3.736-2.096-3.285-2.935Z"/><path d="M71.461,93.348c.09-1.518,1.951-.352,2.754.068,1.608.842,3.403,2.414,4.545,3.824.387.478.635.96-.263.875-.472-.045-3.413-2.421-4.103-2.915-.932-.667-1.905-1.337-2.932-1.853Z"/><path d="M118.269,116.903c.231-.067.525-.08.677.138.618.886-1.685,2.514-1.857,3.44-.002.62,2.317,1.718,1.307,2.529-1.19-.113-2.732-1.248-2.717-2.535.009-.78,1.921-3.377,2.59-3.571Z"/><path d="M82.619,97.93c-.249.205-.736.194-1.015.036-.206-.117-1.484-2.038-1.88-2.484-1.149-1.291-2.655-2.277-3.711-3.623.901.267,1.686.769,2.467,1.267.838.535,3.648,2.513,4.147,3.185.332.447.442,1.246-.009,1.619Z"/><path d="M109.823,106.456c.678.962-3.057,2.926-3.743,3.191-.592.228-3.587,1.14-3.808.401-.251-.837,1.516-.905,2.065-1.09,1.184-.4,2.349-.865,3.434-1.486.717-.41,1.254-1.335,2.052-1.016Z"/><path d="M95.345,105.701c-.7-.68-1.737-4.695-2.656-5.707-.004-.678.472-.932,1.017-.471.869.735,2.956,5.1,2.625,6.11-.136.429-.738.308-.985.069Z"/><path d="M88.555,97.15c.542-.171.9.353,1.194.705.848,1.017,2.542,4.207,2.175,5.483-.56,1.946-1.788-2.293-1.917-2.578-.29-.637-1.741-2.748-1.737-3.194.002-.194.1-.358.285-.417Z"/><path d="M84.495,95.556c.726-.156,2.558,3.49,2.872,4.154.305.645,1.265,2.581,1.264,3.144,0,.291-.021.43-.272.606-.751-.015-3.361-6.436-4.099-7.329l.235-.575Z"/><path d="M136.774,36.627c-.529.086-.282-.129-.355-.426-.458-1.858-.54-3.839-.96-5.726-.358-1.606-.994-3.13-1.318-4.743,1.282.986,1.813,2.888,2.163,4.425.484,2.127.673,4.312.471,6.469Z"/><path d="M72.494,97.164c-.808.622-5.064-2.62-5.349-3.574-.135-.452.089-.776.572-.779.655-.003,3.748,2.974,4.511,3.527l.266.826Z"/><path d="M148.106,105.766c1.41-.656,4.8,4.225,3.408,4.864-.702.323-1.752-1.834-2.11-2.328-.323-.446-2.198-2.118-1.298-2.536Z"/><path d="M131.147,112.671c.093.34.068.281-.165.417-.689.402-3.955.406-4.936.376-.975-.029-3.343.119-3.267-1.159.989-.048,1.976.123,2.964.132,1.793.016,3.716-.328,5.405.234Z"/><path d="M142.963,105.867c.3-.119.834.238,1.102.398.906.539,3.654,2.477,3.989,3.378.425,1.147-.278,1.003-1.021.499-.785-.532-2.755-2.177-3.449-2.853-.257-.251-1.305-1.151-.621-1.422Z"/><path d="M24.3,76.17c.32.365-1.354,7.026-1.843,7.907-.236-.204-.346-.536-.397-.832-.185-1.075.99-6.038,1.714-6.812.164-.176.245-.324.527-.262Z"/><path d="M64.622,93.954c.209-.018.398.179.553.303.317.255,2.337,2.185,2.518,2.434.244.335.602,1.083.132,1.356-.672.391-3.854-2.319-3.756-3.379.027-.287.254-.689.553-.715Z"/><path d="M56.988,108.265c.061.305-.073.356-.3.486-.897.517-3.91-.382-4.915-.809-.244-.104-1.732-.73-1.461-1.085l.743-.138,5.933,1.545Z"/><path d="M99.097,114.599c1.644-.142,2.793,3.942,1.354,4.358-1.064.307-.706-1.352-.908-2.196-.191-.797-1.14-1.592-.446-2.162Z"/><path d="M132.977,111.728c-.269.299-5.559-1.111-6.354-1.237l-.251-.587c.207-.263,3.572.314,4.127.457.196.051,2.922.873,2.477,1.367Z"/><path d="M103.383,105.046c-.086,1.512-3.052,3.683-4.388,3.793-.196.016-.473.081-.531-.194-.096-.46,2.488-1.953,2.972-2.297.295-.211,1.668-1.583,1.947-1.302Z"/><path d="M97.934,105.923c-.239-.03-.305-.239-.341-.446-.081-.465.357-4.027.553-4.352.445-.736.82-.192.859.49.082,1.431-.507,3.026-1.071,4.309Z"/><path d="M53.409,104.42c.637-.176,2.778.444,3.404.767.285.147.66.264.525.702-.282.915-3.713-.586-4.131-1.14-.165-.118.097-.3.201-.329Z"/><path d="M61.65,95.606c1.073-.188,3.033,2.357,1.48,2.419-.656.026-2.089-1.21-2.009-1.881.042-.256.283-.494.529-.537Z"/><path d="M155.62,110.429l-.466.195c-.934-.66-2.054-1.837-1.796-3.053.288-.285,1.721,1.195,1.919,1.476.322.458.679.78.343,1.383Z"/><path d="M134.916,110.244c-.381.459-2.979-1.498-3.342-1.873-.296-.305-.572-.947.116-.762.55.148,3.686,2.08,3.226,2.635Z"/></g><g id="Layer_1_copy_3"><path d="M179.621,79.836c-.245-1.413-.497-2.869-.482-3.852l.075-.535c.159-.658.413-1.672.285-2.953-.052-.52-.174-.986-.324-1.396.106-.44.176-.95.15-1.518-.045-1.008-.349-1.906-.616-2.697-.059-.173-.135-.399-.193-.588.122-.389.265-.932.299-1.597.025-.489-.015-.92-.074-1.285.178-.588.34-1.434.209-2.453-.146-1.123-.62-1.933-.959-2.426-.393-1.138-.729-2.27-1.054-3.368-1.052-3.546-2.139-7.214-5.067-11.076-1.695-2.236-3.522-3.487-4.99-4.492-1.004-.688-1.797-1.231-2.478-2.005-1.716-1.951-3.225-4.379-4.821-6.95-1.696-2.73-3.45-5.554-5.621-8.054-10.902-12.551-24.636-19.271-44.529-21.788C105.306.281,101.024.017,96.701.017,77.92.017,59.41,4.984,45.919,13.646c-2.46,1.579-4.028,3.165-5.545,4.698-.501.507-1.021,1.034-1.604,1.588-.423.402-.913.81-1.432,1.242-1.15.957-2.454,2.042-3.571,3.52-.757,1.001-1.396,2.047-2.015,3.058-.512.837-.996,1.627-1.495,2.31-.896,1.224-1.893,2.423-2.948,3.691-2.315,2.785-4.71,5.664-6.367,9.221-4.314,9.261-6.04,16.738-6.444,28.094-.021.582-.182,1.159-.501,1.647-.448.685-1.161,1.818-1.456,1.818-3.112,0-5.107,1.669-6.447,2.868C1.109,81.86.352,90.947.034,99.115l-.014.352c-.233,5.921,1.606,10.793,3.385,15.505.71,1.881,1.381,3.657,1.928,5.505.437,1.476.834,3.353,1.255,5.34.905,4.273,1.84,8.692,3.667,11.914,1.101,1.944,4.818,4.674,6.978,5.125.51.106,1.039.161,1.571.161.131,0,.262-.003.392-.01.908-.045,1.681.636,1.763,1.542.083.922.169,1.846.256,2.771.36,3.83.733,7.791.777,11.573,0,.007.06-1.374.06-1.367.01,1.445.471,2.566.873,3.955.476,1.644,1.374,3.36,2.159,4.858.352.672.704,1.343,1.057,2.015.173.33.339.886.605,1.153,2.399,5.122,5.026,10.146,7.865,15.038,2.844,4.901,5.874,10.037,9.804,14.163,3.905,4.099,8.849,7.335,13.855,9.913,5.659,2.915,11.444,3.906,17.04,4.865l1.737.3c2.244.393,4.933,1.053,7.779,1.751,5.971,1.467,12.739,3.129,18.66,3.129,2.911,0,5.528-.338,8.092-1.765,4.976-2.768,10.248-5.315,14.853-8.662,2.976-2.163,4.989-5.063,6.976-8.1,2.195-3.355,4.295-6.771,6.393-10.187,1.386-2.257,2.772-4.515,4.188-6.754,1.134-1.793,2.345-3.588,3.627-5.489,2.994-4.44,6.092-9.032,8.339-13.867.242-.522.558-1.34,1.093-2.741.395-1.03,1.098-2.871,1.612-4.068.189-.08.388-.175.588-.289,5.09-2.886,5.622-7.186,6.01-10.325.054-.431.108-.875.176-1.332.6-4.08,2.595-10.422,4.177-14.196.498-1.186,1.058-2.285,1.649-3.448,1.787-3.51,3.813-7.489,3.327-13.238-.036-.426-.121-.838-.221-1.219.161-.312.312-.635.43-.976.273-.785.433-1.517.574-2.162.12-.553.225-1.03.363-1.372.172-.426.344-.737.542-1.099.817-1.486,1.479-2.955,1.298-5.892-.037-.61-.158-1.159-.255-1.6-.015-.066-.029-.132-.044-.197.062-.279.186-.718.274-1.032.266-.939.541-1.911.575-2.914.018-.497-.028-.948-.099-1.337.191-.315.372-.686.509-1.117.34-1.064.33-2.048.324-2.766l.177-.62c.205-.337.437-.764.621-1.281,1.003-2.807.477-5.847-.032-8.786ZM38.391,28.487c1.042-1.959,3.176-2.928,4.797-4.341,2.017-1.759,3.503-3.715,5.837-5.235,11.378-7.409,29.502-12.043,43.016-12.693,21.741-1.046,46.348,4.484,59.465,23.147l2.137,3.397c-3.261-3.223-7.071-5.889-11.016-8.226-20.531-12.163-43.69-13.47-66.839-9.264-10.974,1.994-24.577,6.802-34.074,12.672-.696.43-3.109,2.267-3.615,2.361-.675.125.176-1.598.292-1.818ZM47.665,193.076c-1.901-1.952-3.547-4.137-4.905-6.5-4.319-7.514-8.536-15.101-12.108-23.001-1.551-3.43-2.961-6.857-3.195-10.688-.512-8.377.708-17.319-.346-25.663-.358-2.83-1.223-5.578-1.557-8.46-.488-4.202-.298-12.427-4.252-15.079-1.303-.874-3.363-.468-3.666,1.23-.044.244-.162.899.248.776.675-.192,1.144-1.673,2.2-1.147.215.107,1.344,1.808,1.545,2.154,1.371,2.355,2.316,8.023,2.801,10.906.28,1.666.203,3.395.42,5.028.377,2.839,1.219,5.636,1.032,8.544-.234-.028-.42-.118-.667-.06-.966.229-2.088,3.277-2.936,4.101-.621.604-2.62,1.74-3.475,1.549-.451-.101-2.473-1.825-2.858-2.244-2.1-2.288-1.962-4.704-2.627-7.565-1.577-6.784-3.58-12.323-5.762-18.842-.479-1.431-1.505-4.016-1.639-5.406-.122-1.266.544-3.603.631-5.013.083-1.336-.086-2.714-.005-4.047.21-3.477,1.172-11.23,4.857-12.717.965-.389,2.603-.065,3.594.239.694.213,1.791.983,2.364.985,1.064.004,1.645-1.727,2.9-1.417.009.431-.034.866.022,1.297.034.262.087,1.062.328,1.163,1.126-5.909,3.086-11.493,6.431-16.504,1.159-1.736,3.738-4.256,4.257-6.112.072-.258.134-.474-.227-.403-5.145,5.29-9.96,11.933-10.636,19.506-.111.006-.335-.204-.35-.264-.181-.711,0-3.107,0-4.042,0-.225,1.147-3.763,1.326-4.298,2.46-7.377,7.316-9.48,11.945-14.944,1.379-1.628,2.286-3.641,3.739-5.224l.036-.577c-.648.197-.88.914-1.314,1.408-4.628,5.256-10.117,9.399-14.182,14.991l-1.02,2.228c.253-2.607.405-4.113,1.863-6.306,3.619-5.443,9.737-8.158,13.747-14.02.298-.436,2.19-3.522,1.962-3.748-.27-.04-.41.003-.625.164-.428.321-1.831,2.606-2.367,3.257-2.159,2.619-4.178,4.59-6.766,6.766-1.236,1.039-2.798,1.936-3.956,3.073-.982.965-1.752,2.351-2.803,3.258.614-2.389,2.241-5.249,3.87-7.112,1.619-1.852,3.96-3.055,5.797-4.748,2.396-2.207,3.654-4.564,5.548-7.105.297-.398.992-.885,1.125-1.336.065-.222-.042-.353-.259-.259-.164.072-1.532,1.188-1.764,1.4-1.67,1.529-2.833,3.726-4.382,5.284-2.123,2.135-5.183,3.649-7.121,5.884-.493.569-.783,1.372-1.408,1.841.122-.603.213-1.509.52-2.026,1.889-3.179,5.704-4.443,8.004-7.11,1.901-2.205,3.123-5.166,5.181-7.296-.231-.231-.666.233-.86.37-2.72,1.92-4.045,5.138-6.342,7.19-1.284,1.146-3.225,1.976-4.484,3.248.004-.848.757-1.657,1.124-2.391.281-.561.213-1.066.627-1.658.775-1.107,3.186-2.739,4.315-3.769.914-.833,1.707-1.821,2.631-2.641,1.238-1.099,2.687-1.987,3.868-3.162-2.245-.015-4.211,1.901-5.801,3.338-.55.497-2.32,2.544-2.724,2.725-.077.034-.288.045-.26-.086.771-.848,1.325-2.02,2.035-2.886,4.456-5.439,13.548-10.97,19.989-13.753,4.164-1.799,8.462-3.396,12.685-5.044,4.294.995,8.706,1.384,12.784,3.185l12.257,5.051-4.339-3.127c-5.603-2.91-11.575-5.594-17.978-6.011l1.663-.865c2.393.805,4.908,1.133,7.337,1.796,5.686,1.551,10.868,4.36,16.482,6.099-6.497-4.51-14.111-7.435-21.966-8.612l3.799-1.031,2.048.018c5.063,2.242,10.329,4.159,15.052,7.092,5.687,3.531,10.628,8.574,16.004,12.552.144-.156-1.451-2.214-1.666-2.462-4.447-5.151-15.542-12.807-21.763-15.67-1.443-.664-2.98-1.299-4.513-1.728-.038-.463-.018-.29.267-.343,1.229-.229,2.57-.42,3.82-.498,8.393,3.829,14.932,9.09,21.574,15.34,2.367,2.228,4.492,4.718,7.025,6.768-1.428-4.08-5.112-7.264-8.256-10.107-5.296-4.791-10.764-9.385-17.4-12.214-.05-.066.231-.349.263-.349h3.163c.481,0,7.075,4.694,7.978,5.378,3.262,2.474,6.917,5.582,9.862,8.415,3.612,3.474,5.865,8.601,9.576,12.04.241-.114-.027-.447-.086-.617-2.558-7.3-13.686-17.844-19.981-22.372-1.457-1.048-2.996-1.97-4.449-3.018,3.158-.267,6.354,1.593,8.914,3.298,4.697,3.13,9.337,7.439,13.583,11.196.414.367,1.525,1.702,1.845,1.846.093.042.297.034.26-.085-4.156-6.9-10.793-11.861-17.572-15.994,1.202.053,2.935-.029,4.083.311.517.153,1.223.635,1.701.935,2.864,1.797,5.35,4.812,7.836,7.102.204-.403-.326-1.03-.543-1.39-1.406-2.328-3.373-4.741-5.695-6.168-.034-.301.609-.194.796-.18.415.029,1.949.167,2.188.273.528.236,2.89,3.287,3.411,3.97,3.806,4.982,6.539,10.675,9.86,15.973.223-.109.015-.488-.037-.666-.791-2.749-2.473-6.086-3.888-8.59-2.128-3.765-4.672-7.483-7.762-10.515.727-.127,2.734-.158,3.336.179.292.164,1.861,2.75,2.185,3.263,4.489,7.11,7.667,14.946,11.352,22.479.317.042.159-.382.13-.568-1.162-7.287-5.997-14.929-9.372-21.384l-2.533-3.704c.898.657,1.605-.055,2.359.891.976,1.226,2.299,3.699,3.118,5.142,1.833,3.226,3.33,6.648,5.331,9.783.044-.89-.344-2.02-.613-2.902-1.323-4.333-3.624-8.399-6.153-12.124.907-.021,2.959.146,3.594.8.655.676,1.92,2.988,2.411,3.916,2.417,4.57,3.577,9.86,4.717,14.879l.182-1.501c-.22-.861-.094-1.764-.186-2.626-.557-5.244-2.462-10.293-5.622-14.498,1.88.121,2.771,1.454,3.656,2.932,2.771,4.629,3.454,10.737,4.957,15.869.306.041.166-.4.174-.612.185-4.783-.946-9.359-2.781-13.74l-1.786-3.045c2.341.813,3.935,2.804,5.344,4.759,3.044,4.222,4.137,9.169,5.025,14.22.254.035.269-.478.3-.663,1.036-6.201-1.545-11.443-5.576-15.942l3.346,1.624c2.03,3.14,2.796,6.857,4.653,10.06.02-3.167-1.022-6.327-2.899-8.877-.056-.239.015-.333.258-.258.183.057,2.261,1.375,2.356,1.511.648.925,1.437,6.906,2.04,6.919.968-1.653.268-3.56-.02-5.25-.032-.188-.189-.518.193-.368.07.027,1.181.809,1.221.872.056.089.246,1.635.402,2.075.158.446.315.925.665,1.265.738-.706.241-1.623.351-2.456,2.817,2.012,5.37,4.328,7.741,6.845,2.346,2.49,4.524,5.331,6.759,8.003.218.261.301.681.531.875.431.364.96.184,1.405.352,1.18.447,3.149,2.081,3.952,3.078,1.103,1.369,2.011,3.606,2.544,5.274-2.03-1.974-3.786-4.407-6.409-5.624l-.266.437c1.532,1.387,3.026,2.664,4.388,4.225,1.052,1.206,3.716,4.417,4.004,5.837.038.188.208.928-.131.923-.965-1.619-2.15-3.183-3.427-4.57-.296-.322-3.262-3.372-3.604-2.984-.045.325.002.519.166.799.431.737,2.741,2.762,3.519,3.686,1.512,1.797,2.785,3.786,4.196,5.661l-.06,2.33c-1.344-1.946-2.842-4.362-4.565-5.979-.477-.448-1.622-1.409-2.264-1.205l-.287.415c2.799,2.229,4.575,5.391,6.811,8.129l.306,1.979c-1.803-2.389-3.381-5.044-5.977-6.673l-.269.436c.86,1.134,1.912,2.058,2.811,3.17,1.374,1.7,2.408,3.646,3.846,5.299l-.411,1.459c-.908-1.022-2.991-4.558-4.222-4.917-.251-.073-.309.021-.263.263l4.837,7.114.175,2.109c-.598-.878-2.873-5.449-3.867-5.453-.286-.001-.605.336-.612.617l4.663,7.463c.242,2.359,1.087,4.647.955,7.04-.036.05-.224-.091-.264-.173-.272-.554-.379-2.114-.623-2.892-.279-.889-.85-2.528-1.921-2.558.851,3.537,2.104,7.514,1.226,11.159-.064.266.124.309-.346.264-.672-2.295-1.256-4.678-2.155-6.898-.287-.708-.507-1.656-1.184-2.065-.275,2.07.841,3.94,1.279,5.838.608,2.638,1.428,7.061,1.181,9.716-.052.56-.362.992-.366,1.579-.006.84.547,1.896.543,2.639-.003.594-.459,1.242-.532,1.842l-1.03-5.381c-.231-.973-2.223-7.895-2.555-8.165-.349-.283-.689-.275-.707.174,1.138,5.379,3.429,10.598,3.159,16.194l-.621,1.396c-.303-2.911-.837-5.831-1.633-8.648-.228-.808-.476-1.947-.851-2.664-.15-.287-.257-.7-.68-.636.181,2.555,1.05,5.014,1.525,7.524.301,1.59,1.072,5.183,1.092,6.603.005.329-.257.771-.158,1.163l-.623-.174c.036-.399.128-.689.081-1.12-.122-1.114-1.307-6.195-1.838-6.958-.142-.204-.344-.365-.522-.534-.188-.043-.367.128-.416.29-.174.566,1.279,6.333,1.57,7.346.077.266.183.496.327.73l.017.243-.7.266c1.436,1.834,2.039,3.174,1.448,5.494-1.259,4.95-3.892,10.396-5.541,15.372-1.069,3.227-.943,6.639-1.776,9.92-.474,1.867-1.153,6.322-2.44,7.5-.258.236-2.169,1.265-1.887.289,1.471-5.148,2.306-10.497,3.423-15.74.639-2.998.606-4.856,1.355-7.861.585-2.346.275-1.41.87-3.776.218-.868.893-3.234,1.18-4.161.229-.72,1.909-5.653,1.755-5.902-1.015,1.735-3.765,9.338-4.669,12.551-.888,3.158-1.134,6.406-1.818,9.622-1.611,7.574-3.72,15.168-6.757,22.295-4.24,9.95-11.107,17.98-16.097,27.473-1.882,3.58-3.484,8.305-5.365,12.016-.303.597-.554,1.168-.856,1.749.007-.011.014-.02.021-.031-.009.014-.018.028-.027.042-.294.566-.637,1.142-1.126,1.764l-1.509,1.882-1.957,1.9c-.553.536-1.178.993-1.857,1.356l-1.928,1.03-.772.24c5.069-4.962,7.827-10.388,10.471-17.05.074-.186.275-.609,1.149-2.412-.146-.094.427-1.596.318-1.733-.163.248-.271.483-.572,1.052-3.434,6.506-6.327,12.726-11.475,18.162-2.001,2.113-9.9,6.025-12.747,6.469-10.865,1.694-17.944-1.18-28.12-3.422-6.087-1.341-11.784-1.886-17.558-4.585-1.977-.924-5.545-3.365-7.39-4.261-1.197-.581-2.275-1.38-3.203-2.333l-3.356-3.59Z"/></g></svg>