<?xml version="1.0" encoding="UTF-8"?><svg id="Layer_3_copy" xmlns="http://www.w3.org/2000/svg" width="6.358cm" height="7.739cm" viewBox="0 0 180.222 219.376"><defs><style>.cls-1{fill:#979942;}</style></defs><path class="cls-1" d="M78.227,112.901c1.187-1.006,1.939-2.467,1.939-4.099,0-.416-.053-.82-.145-1.209l-2.152-.102-3.518-.011-2.022.086c-.33.014-.658.056-.98.126l-1.507.329,2.11,1.416,3.371,1.994c.141.084.285.164.431.24l1.944,1.016.531.213Z"/><path class="cls-1" d="M135.972,123.565c1.513-.99,2.506-2.648,2.506-4.527,0-.341-.037-.673-.1-.997l-2.594-.221c-.325-.028-.651-.033-.977-.015l-2.367.13c-.334.018-.665.071-.988.156l-2.487.66c-.175.046-.291.211-.275.391l.124,1.443h0c.614.668,1.388,1.168,2.25,1.453l3.398,1.121,1.511.407Z"/></svg>